<mxfile host="app.diagrams.net" modified="2023-05-26T01:16:37.224Z" agent="Mozilla/5.0 (Windows NT 10.0; Win64; x64) AppleWebKit/537.36 (KHTML, like Gecko) Chrome/112.0.0.0 Safari/537.36 OPR/98.0.0.0 (Edition std-1)" etag="WpuRBxxqdHKxDB-dQ2RH" version="21.3.4" type="onedrive">
  <diagram name="Página-1" id="TtumdY1GP64hk79MGq9V">
    <mxGraphModel grid="1" page="1" gridSize="10" guides="1" tooltips="1" connect="1" arrows="1" fold="1" pageScale="1" pageWidth="827" pageHeight="1169" math="0" shadow="0">
      <root>
        <mxCell id="0" />
        <mxCell id="1" parent="0" />
        <mxCell id="CdYCm1VZrVxvHv3cwEFc-1" style="edgeStyle=orthogonalEdgeStyle;rounded=0;orthogonalLoop=1;jettySize=auto;html=1;entryX=0.5;entryY=0;entryDx=0;entryDy=0;" edge="1" parent="1" source="CdYCm1VZrVxvHv3cwEFc-2" target="CdYCm1VZrVxvHv3cwEFc-4">
          <mxGeometry relative="1" as="geometry" />
        </mxCell>
        <mxCell id="CdYCm1VZrVxvHv3cwEFc-2" value="Início" style="ellipse;whiteSpace=wrap;html=1;" vertex="1" parent="1">
          <mxGeometry x="335" y="310" width="120" height="80" as="geometry" />
        </mxCell>
        <mxCell id="CdYCm1VZrVxvHv3cwEFc-3" style="edgeStyle=orthogonalEdgeStyle;rounded=0;orthogonalLoop=1;jettySize=auto;html=1;" edge="1" parent="1" source="CdYCm1VZrVxvHv3cwEFc-4" target="CdYCm1VZrVxvHv3cwEFc-7">
          <mxGeometry relative="1" as="geometry" />
        </mxCell>
        <mxCell id="CdYCm1VZrVxvHv3cwEFc-4" value="numero" style="shape=parallelogram;perimeter=parallelogramPerimeter;whiteSpace=wrap;html=1;fixedSize=1;" vertex="1" parent="1">
          <mxGeometry x="295" y="450" width="200" height="60" as="geometry" />
        </mxCell>
        <mxCell id="CdYCm1VZrVxvHv3cwEFc-5" style="edgeStyle=orthogonalEdgeStyle;rounded=0;orthogonalLoop=1;jettySize=auto;html=1;entryX=0.5;entryY=0;entryDx=0;entryDy=0;" edge="1" parent="1" source="CdYCm1VZrVxvHv3cwEFc-7" target="CdYCm1VZrVxvHv3cwEFc-11">
          <mxGeometry relative="1" as="geometry" />
        </mxCell>
        <mxCell id="CdYCm1VZrVxvHv3cwEFc-6" style="edgeStyle=orthogonalEdgeStyle;rounded=0;orthogonalLoop=1;jettySize=auto;html=1;entryX=0.5;entryY=0;entryDx=0;entryDy=0;" edge="1" parent="1" source="CdYCm1VZrVxvHv3cwEFc-7" target="CdYCm1VZrVxvHv3cwEFc-9">
          <mxGeometry relative="1" as="geometry" />
        </mxCell>
        <mxCell id="CdYCm1VZrVxvHv3cwEFc-7" value="(numero&amp;lt;=200) e (numero&amp;gt;=100)" style="rhombus;whiteSpace=wrap;html=1;" vertex="1" parent="1">
          <mxGeometry x="305" y="580" width="180" height="80" as="geometry" />
        </mxCell>
        <mxCell id="CdYCm1VZrVxvHv3cwEFc-8" style="edgeStyle=orthogonalEdgeStyle;rounded=0;orthogonalLoop=1;jettySize=auto;html=1;" edge="1" parent="1" source="CdYCm1VZrVxvHv3cwEFc-9" target="CdYCm1VZrVxvHv3cwEFc-12">
          <mxGeometry relative="1" as="geometry" />
        </mxCell>
        <mxCell id="CdYCm1VZrVxvHv3cwEFc-9" value="&lt;div&gt;&lt;font style=&quot;font-size: 10px;&quot;&gt;(&quot;Seu número está entre 100 e 200&quot;)&lt;/font&gt;&lt;/div&gt;" style="shape=document;whiteSpace=wrap;html=1;boundedLbl=1;" vertex="1" parent="1">
          <mxGeometry x="135" y="650" width="160" height="80" as="geometry" />
        </mxCell>
        <mxCell id="CdYCm1VZrVxvHv3cwEFc-10" style="edgeStyle=orthogonalEdgeStyle;rounded=0;orthogonalLoop=1;jettySize=auto;html=1;" edge="1" parent="1" source="CdYCm1VZrVxvHv3cwEFc-11" target="CdYCm1VZrVxvHv3cwEFc-12">
          <mxGeometry relative="1" as="geometry" />
        </mxCell>
        <mxCell id="CdYCm1VZrVxvHv3cwEFc-11" value="&lt;font style=&quot;font-size: 10px;&quot;&gt;(&quot;Seu número não está entre 100 e 200&quot;)&lt;/font&gt;" style="shape=document;whiteSpace=wrap;html=1;boundedLbl=1;" vertex="1" parent="1">
          <mxGeometry x="495" y="650" width="170" height="80" as="geometry" />
        </mxCell>
        <mxCell id="CdYCm1VZrVxvHv3cwEFc-12" value="Fim" style="ellipse;whiteSpace=wrap;html=1;" vertex="1" parent="1">
          <mxGeometry x="335" y="780" width="120" height="80" as="geometry" />
        </mxCell>
      </root>
    </mxGraphModel>
  </diagram>
</mxfile>
